<?xml version="1.0" encoding="UTF-8"?>
<svg width="32px" height="32px" viewBox="0 0 32 32" version="1.1" xmlns="http://www.w3.org/2000/svg" xmlns:xlink="http://www.w3.org/1999/xlink">
    <title>情景教育互动平台</title>
    <g id="图标" stroke="none" stroke-width="1" fill="none" fill-rule="evenodd">
        <g id="fox-icon">
            <circle id="背景" fill="#C9F5D2" cx="16" cy="16" r="16"></circle>
            <path d="M16,7 C19.5,7 23,10.5 23,16 C23,19 21,22 16,22 C11,22 9,19 9,16 C9,10.5 12.5,7 16,7 Z" id="脸部" fill="#FFA726"></path>
            <path d="M13,12 C13.5,12 14,12.5 14,13 C14,13.5 13.5,14 13,14 C12.5,14 12,13.5 12,13 C12,12.5 12.5,12 13,12 Z M19,12 C19.5,12 20,12.5 20,13 C20,13.5 19.5,14 19,14 C18.5,14 18,13.5 18,13 C18,12.5 18.5,12 19,12 Z" id="眼睛" fill="#795548"></path>
            <path d="M16,17 C16.75,17 17.5,17.5 17.5,18 C17.5,18.25 16.75,18.5 16,18.5 C15.25,18.5 14.5,18.25 14.5,18 C14.5,17.5 15.25,17 16,17 Z" id="嘴巴" fill="#795548"></path>
            <path d="M10,11 C10,8 13,6 16,6 C19,6 22,8 22,11 C22,12 21.5,10.5 20.5,9.5 C19.5,8.5 17.75,8 16,8 C14.25,8 12.5,8.5 11.5,9.5 C10.5,10.5 10,12 10,11 Z" id="耳朵" fill="#FF9800"></path>
            <path d="M24,16 C24,20.5 20.5,24 16,24 C11.5,24 8,20.5 8,16 C8,15.75 8.25,15.5 8.5,15.5 C8.75,15.5 9,15.75 9,16 C9,20 12,23 16,23 C20,23 23,20 23,16 C23,15.75 23.25,15.5 23.5,15.5 C23.75,15.5 24,15.75 24,16 Z" id="书本" fill="#4CAF50"></path>
        </g>
    </g>
</svg> 